<svg width="8" height="12" viewBox="0 0 8 12" fill="none" xmlns="http://www.w3.org/2000/svg">
<mask id="path-1-inside-1" fill="white">
<path fill-rule="evenodd" clip-rule="evenodd" d="M7.96051 0L-3.33786e-06 5.77397L7.96051 11.5479L7.96051 0Z"/>
</mask>
<path d="M-3.33786e-06 5.77397L-0.587144 4.96449L-1.70317 5.77397L-0.587144 6.58346L-3.33786e-06 5.77397ZM7.96051 0L8.96051 0V-1.96068L7.37337 -0.809485L7.96051 0ZM7.96051 11.5479L7.37337 12.3574L8.96051 13.5086V11.5479H7.96051ZM0.587138 6.58346L8.54765 0.809485L7.37337 -0.809485L-0.587144 4.96449L0.587138 6.58346ZM8.54765 10.7385L0.587138 4.96449L-0.587144 6.58346L7.37337 12.3574L8.54765 10.7385ZM8.96051 11.5479V0L6.96051 0L6.96051 11.5479H8.96051Z" fill="#263A32" mask="url(#path-1-inside-1)"/>
</svg>
