<svg width="8" height="12" viewBox="0 0 8 12" fill="none" xmlns="http://www.w3.org/2000/svg">
<mask id="path-1-inside-1" fill="white">
<path fill-rule="evenodd" clip-rule="evenodd" d="M0 11.5479L7.96051 5.77388L0 -9.53674e-05L0 11.5479Z"/>
</mask>
<path d="M7.96051 5.77388L8.54765 6.58336L9.66368 5.77388L8.54765 4.96439L7.96051 5.77388ZM0 11.5479H-1L-1 13.5085L0.587141 12.3573L0 11.5479ZM0 -9.53674e-05L0.587141 -0.80958L-1 -1.96078L-1 -9.53674e-05H0ZM7.37337 4.96439L-0.587141 10.7384L0.587141 12.3573L8.54765 6.58336L7.37337 4.96439ZM-0.587141 0.809389L7.37337 6.58336L8.54765 4.96439L0.587141 -0.80958L-0.587141 0.809389ZM-1 -9.53674e-05L-1 11.5479H1L1 -9.53674e-05H-1Z" fill="#263A32" mask="url(#path-1-inside-1)"/>
</svg>
