<svg width="70" height="41" viewBox="0 0 70 41" fill="none" xmlns="http://www.w3.org/2000/svg">
<path d="M54.0597 20.6167C54.255 20.4215 54.255 20.1049 54.0597 19.9096L50.8777 16.7276C50.6824 16.5324 50.3659 16.5324 50.1706 16.7276C49.9753 16.9229 49.9753 17.2395 50.1706 17.4348L52.999 20.2632L50.1706 23.0916C49.9753 23.2869 49.9753 23.6035 50.1706 23.7987C50.3659 23.994 50.6824 23.994 50.8777 23.7987L54.0597 20.6167ZM0 20.7632H53.7061V19.7632H0L0 20.7632Z" fill="#263A32"/>
<path d="M31.4216 12.8378C33.1457 8.58523 36.2959 5.06512 40.3318 2.88136C44.3676 0.697599 49.0376 -0.0136902 53.5406 0.86951C58.0436 1.75271 62.099 4.17535 65.0109 7.72183C67.9229 11.2683 69.51 15.7176 69.4999 20.3064C69.4899 24.8951 67.8834 29.3374 64.9559 32.8711C62.0285 36.4049 57.9626 38.8097 53.4558 39.6733C48.949 40.5368 44.2821 39.8051 40.2559 37.6037C36.2296 35.4023 33.0948 31.8684 31.3893 27.6084" stroke="#263A32" stroke-opacity="0.5"/>
</svg>
