<svg width="345" height="12" viewBox="0 0 345 12" fill="none" xmlns="http://www.w3.org/2000/svg">
<path opacity="0.9" fill-rule="evenodd" clip-rule="evenodd" d="M345 0H0V12H345V0ZM2.62752 10.1802C3.30786 10.5482 4.0664 10.7322 4.90314 10.7322C5.61476 10.7322 6.25991 10.6042 6.83859 10.3482C7.41727 10.0922 7.90211 9.72024 8.29311 9.23223L7.07319 8.08024C6.51797 8.74424 5.82981 9.07624 5.00871 9.07624C4.50041 9.07624 4.04685 8.96424 3.64803 8.74024C3.24921 8.50824 2.93641 8.18824 2.70963 7.78023C2.49067 7.37223 2.38119 6.90824 2.38119 6.38824C2.38119 5.86824 2.49067 5.40424 2.70963 4.99623C2.93641 4.58823 3.24921 4.27223 3.64803 4.04823C4.04685 3.81624 4.50041 3.70024 5.00871 3.70024C5.82981 3.70024 6.51797 4.02824 7.07319 4.68424L8.29311 3.53224C7.90211 3.05224 7.41727 2.68424 6.83859 2.42824C6.26773 2.17224 5.62649 2.04424 4.91487 2.04424C4.07031 2.04424 3.30786 2.23224 2.62752 2.60824C1.955 2.97624 1.42324 3.49223 1.03224 4.15624C0.64906 4.81223 0.45747 5.55624 0.45747 6.38824C0.45747 7.22024 0.64906 7.96824 1.03224 8.63224C1.42324 9.28824 1.955 9.80424 2.62752 10.1802ZM18.6602 10.1682C19.3483 10.5442 20.1186 10.7322 20.971 10.7322C21.8234 10.7322 22.5897 10.5442 23.2701 10.1682C23.9504 9.79224 24.4861 9.27624 24.8771 8.62024C25.2681 7.95623 25.4636 7.21223 25.4636 6.38824C25.4636 5.56424 25.2681 4.82423 24.8771 4.16824C24.4861 3.50424 23.9504 2.98424 23.2701 2.60824C22.5897 2.23224 21.8234 2.04424 20.971 2.04424C20.1186 2.04424 19.3483 2.23224 18.6602 2.60824C17.9798 2.98424 17.4442 3.50424 17.0532 4.16824C16.67 4.82423 16.4784 5.56424 16.4784 6.38824C16.4784 7.21223 16.67 7.95623 17.0532 8.62024C17.4442 9.27624 17.9798 9.79224 18.6602 10.1682ZM22.2848 8.74024C21.8938 8.96424 21.4558 9.07624 20.971 9.07624C20.4862 9.07624 20.0482 8.96424 19.6572 8.74024C19.2662 8.50824 18.9573 8.18824 18.7306 7.78023C18.5116 7.37223 18.4021 6.90824 18.4021 6.38824C18.4021 5.86824 18.5116 5.40424 18.7306 4.99623C18.9573 4.58823 19.2662 4.27223 19.6572 4.04823C20.0482 3.81624 20.4862 3.70024 20.971 3.70024C21.4558 3.70024 21.8938 3.81624 22.2848 4.04823C22.6758 4.27223 22.9807 4.58823 23.1997 4.99623C23.4265 5.40424 23.5399 5.86824 23.5399 6.38824C23.5399 6.90824 23.4265 7.37223 23.1997 7.78023C22.9807 8.18824 22.6758 8.50824 22.2848 8.74024ZM38.1297 8.24823L39.7133 10.5882H41.7543L39.9127 7.88824C40.4523 7.64824 40.8667 7.30424 41.1561 6.85624C41.4532 6.40024 41.6018 5.86024 41.6018 5.23624C41.6018 4.61224 41.4572 4.07223 41.1678 3.61624C40.8785 3.16024 40.464 2.80824 39.9244 2.56024C39.3927 2.31223 38.7632 2.18823 38.0359 2.18823H34.4817V10.5882H36.382V8.24823H38.0359H38.1297ZM39.2324 4.15624C39.5295 4.40424 39.6781 4.76424 39.6781 5.23624C39.6781 5.70024 39.5295 6.06024 39.2324 6.31624C38.9352 6.57224 38.5012 6.70024 37.9303 6.70024H36.382V3.77224H37.9303C38.5012 3.77224 38.9352 3.90024 39.2324 4.15624ZM54.3454 8.24823L55.929 10.5882H57.97L56.1284 7.88824C56.668 7.64824 57.0824 7.30424 57.3718 6.85624C57.6689 6.40024 57.8175 5.86024 57.8175 5.23624C57.8175 4.61224 57.6728 4.07223 57.3835 3.61624C57.0942 3.16024 56.6797 2.80824 56.1401 2.56024C55.6083 2.31223 54.9788 2.18823 54.2516 2.18823H50.6974V10.5882H52.5976V8.24823H54.2516H54.3454ZM55.448 4.15624C55.7452 4.40424 55.8938 4.76424 55.8938 5.23624C55.8938 5.70024 55.7452 6.06024 55.448 6.31624C55.1509 6.57224 54.7169 6.70024 54.146 6.70024H52.5976V3.77224H54.146C54.7169 3.77224 55.1509 3.90024 55.448 4.15624ZM73.2707 10.5882V9.02824H68.8016V7.08424H72.6138V5.57224H68.8016V3.74823H73.1182V2.18823H66.9131V10.5882H73.2707ZM84.0037 10.1802C84.6841 10.5482 85.4426 10.7322 86.2793 10.7322C86.991 10.7322 87.6361 10.6042 88.2148 10.3482C88.7935 10.0922 89.2783 9.72024 89.6693 9.23223L88.4494 8.08024C87.8942 8.74424 87.206 9.07624 86.3849 9.07624C85.8766 9.07624 85.423 8.96424 85.0242 8.74024C84.6254 8.50824 84.3126 8.18824 84.0858 7.78023C83.8669 7.37223 83.7574 6.90824 83.7574 6.38824C83.7574 5.86824 83.8669 5.40424 84.0858 4.99623C84.3126 4.58823 84.6254 4.27223 85.0242 4.04823C85.423 3.81624 85.8766 3.70024 86.3849 3.70024C87.206 3.70024 87.8942 4.02824 88.4494 4.68424L89.6693 3.53224C89.2783 3.05224 88.7935 2.68424 88.2148 2.42824C87.6439 2.17224 87.0027 2.04424 86.2911 2.04424C85.4465 2.04424 84.6841 2.23224 84.0037 2.60824C83.3312 2.97624 82.7994 3.49223 82.4084 4.15624C82.0253 4.81223 81.8337 5.55624 81.8337 6.38824C81.8337 7.22024 82.0253 7.96824 82.4084 8.63224C82.7994 9.28824 83.3312 9.80424 84.0037 10.1802ZM97.5357 3.77224H100.163V10.5882H102.063V3.77224H104.691V2.18823H97.5357V3.77224ZM125.881 10.1682C126.569 10.5442 127.339 10.7322 128.192 10.7322C129.044 10.7322 129.811 10.5442 130.491 10.1682C131.171 9.79224 131.707 9.27624 132.098 8.62024C132.489 7.95623 132.684 7.21223 132.684 6.38824C132.684 5.56424 132.489 4.82423 132.098 4.16824C131.707 3.50424 131.171 2.98424 130.491 2.60824C129.811 2.23224 129.044 2.04424 128.192 2.04424C127.339 2.04424 126.569 2.23224 125.881 2.60824C125.201 2.98424 124.665 3.50424 124.274 4.16824C123.891 4.82423 123.699 5.56424 123.699 6.38824C123.699 7.21223 123.891 7.95623 124.274 8.62024C124.665 9.27624 125.201 9.79224 125.881 10.1682ZM129.506 8.74024C129.115 8.96424 128.677 9.07624 128.192 9.07624C127.707 9.07624 127.269 8.96424 126.878 8.74024C126.487 8.50824 126.178 8.18824 125.951 7.78023C125.732 7.37223 125.623 6.90824 125.623 6.38824C125.623 5.86824 125.732 5.40424 125.951 4.99623C126.178 4.58823 126.487 4.27223 126.878 4.04823C127.269 3.81624 127.707 3.70024 128.192 3.70024C128.677 3.70024 129.115 3.81624 129.506 4.04823C129.897 4.27223 130.202 4.58823 130.421 4.99623C130.647 5.40424 130.761 5.86824 130.761 6.38824C130.761 6.90824 130.647 7.37223 130.421 7.78023C130.202 8.18824 129.897 8.50824 129.506 8.74024ZM147.673 10.5882H149.233V2.18823H147.356V7.28824L143.274 2.18823H141.703V10.5882H143.579V5.48823L147.673 10.5882ZM165.124 10.5882V9.02824H160.654V7.08424H164.467V5.57224H160.654V3.74823H164.971V2.18823H158.766V10.5882H165.124ZM175.035 10.4682C175.645 10.6442 176.274 10.7322 176.923 10.7322C177.674 10.7322 178.312 10.6162 178.835 10.3842C179.359 10.1522 179.75 9.84024 180.008 9.44824C180.274 9.04824 180.407 8.60824 180.407 8.12823C180.407 7.56824 180.263 7.12424 179.973 6.79624C179.692 6.46824 179.352 6.22824 178.953 6.07624C178.554 5.92424 178.042 5.77223 177.416 5.62023C176.814 5.48424 176.364 5.34824 176.067 5.21224C175.778 5.06824 175.633 4.85224 175.633 4.56424C175.633 4.27623 175.758 4.04424 176.009 3.86824C176.267 3.69224 176.662 3.60424 177.193 3.60424C177.952 3.60424 178.71 3.82424 179.469 4.26424L180.055 2.78823C179.68 2.54824 179.242 2.36424 178.742 2.23623C178.241 2.10824 177.729 2.04424 177.205 2.04424C176.454 2.04424 175.817 2.16024 175.293 2.39224C174.777 2.62423 174.39 2.94023 174.132 3.34023C173.874 3.73224 173.745 4.17224 173.745 4.66024C173.745 5.22023 173.885 5.66824 174.167 6.00424C174.456 6.34024 174.8 6.58424 175.199 6.73624C175.598 6.88824 176.11 7.04024 176.736 7.19223C177.142 7.28824 177.463 7.37624 177.698 7.45624C177.94 7.53624 178.136 7.64424 178.284 7.78023C178.441 7.90824 178.519 8.07224 178.519 8.27224C178.519 8.54424 178.39 8.76424 178.132 8.93223C177.874 9.09224 177.475 9.17224 176.935 9.17224C176.45 9.17224 175.966 9.09224 175.481 8.93223C174.996 8.77223 174.577 8.56024 174.226 8.29624L173.58 9.76023C173.948 10.0482 174.433 10.2842 175.035 10.4682ZM192.412 6.46024H189.092V7.96024H192.412V6.46024ZM219.943 5.54824L219.955 10.5882H221.738L221.714 2.18823H220.154L217.128 7.40824L214.055 2.18823H212.483V10.5882H214.266V5.65624L216.67 9.70024H217.527L219.943 5.54824ZM232.871 8.78824H236.683L237.411 10.5882H239.405L235.733 2.18823H233.857L230.197 10.5882H232.144L232.871 8.78824ZM234.783 4.09624L236.085 7.31224H233.481L234.783 4.09624ZM246.508 3.77224H249.135V10.5882H251.035V3.77224H253.663V2.18823H246.508V3.77224ZM268.633 10.5882V9.02824H264.164V7.08424H267.976V5.57224H264.164V3.74823H268.481V2.18823H262.275V10.5882H268.633ZM281.383 8.24823L282.967 10.5882H285.008L283.166 7.88824C283.706 7.64824 284.12 7.30424 284.409 6.85624C284.707 6.40024 284.855 5.86024 284.855 5.23624C284.855 4.61224 284.71 4.07223 284.421 3.61624C284.132 3.16024 283.717 2.80824 283.178 2.56024C282.646 2.31223 282.016 2.18823 281.289 2.18823H277.735V10.5882H279.635V8.24823H281.289H281.383ZM282.486 4.15624C282.783 4.40424 282.931 4.76424 282.931 5.23624C282.931 5.70024 282.783 6.06024 282.486 6.31624C282.189 6.57224 281.754 6.70024 281.184 6.70024H279.635V3.77224H281.184C281.754 3.77224 282.189 3.90024 282.486 4.15624ZM295.851 2.18823H293.951V10.5882H295.851V2.18823ZM306.985 8.78824H310.797L311.524 10.5882H313.518L309.847 2.18823H307.97L304.31 10.5882H306.258L306.985 8.78824ZM308.897 4.09624L310.199 7.31224H307.595L308.897 4.09624ZM323.861 2.18823H321.96V10.5882H327.978V9.00424H323.861V2.18823ZM337.393 10.4682C338.003 10.6442 338.633 10.7322 339.282 10.7322C340.032 10.7322 340.67 10.6162 341.194 10.3842C341.718 10.1522 342.109 9.84024 342.367 9.44824C342.633 9.04824 342.766 8.60824 342.766 8.12823C342.766 7.56824 342.621 7.12424 342.331 6.79624C342.05 6.46824 341.71 6.22824 341.311 6.07624C340.912 5.92424 340.4 5.77223 339.774 5.62023C339.172 5.48424 338.723 5.34824 338.425 5.21224C338.136 5.06824 337.991 4.85224 337.991 4.56424C337.991 4.27623 338.117 4.04424 338.367 3.86824C338.625 3.69224 339.02 3.60424 339.551 3.60424C340.31 3.60424 341.069 3.82424 341.827 4.26424L342.414 2.78823C342.038 2.54824 341.6 2.36424 341.1 2.23623C340.599 2.10824 340.087 2.04424 339.563 2.04424C338.812 2.04424 338.175 2.16024 337.651 2.39224C337.135 2.62423 336.748 2.94023 336.49 3.34023C336.232 3.73224 336.103 4.17224 336.103 4.66024C336.103 5.22023 336.244 5.66824 336.525 6.00424C336.814 6.34024 337.159 6.58424 337.557 6.73624C337.956 6.88824 338.468 7.04024 339.094 7.19223C339.501 7.28824 339.821 7.37624 340.056 7.45624C340.298 7.53624 340.494 7.64424 340.642 7.78023C340.799 7.90824 340.877 8.07224 340.877 8.27224C340.877 8.54424 340.748 8.76424 340.49 8.93223C340.232 9.09224 339.833 9.17224 339.293 9.17224C338.809 9.17224 338.324 9.09224 337.839 8.93223C337.354 8.77223 336.936 8.56024 336.584 8.29624L335.939 9.76023C336.306 10.0482 336.791 10.2842 337.393 10.4682Z" fill="#ECE1D8"/>
</svg>
