<svg width="96" height="122" viewBox="0 0 96 122" fill="none" xmlns="http://www.w3.org/2000/svg">
<path d="M63.2531 48.8343C73.8241 50.5478 81.9246 54.4888 87.5547 60.6573C93.1849 66.7116 96 74.2509 96 83.2753C96 90.2434 94.1616 96.6976 90.4847 102.638C86.8079 108.463 81.1777 113.147 73.5943 116.688C66.1257 120.229 56.9336 122 46.0179 122C37.5153 122 29.1275 120.915 20.8546 118.744C12.6966 116.46 5.74506 113.261 0 109.149L10.8582 87.9017C15.4542 91.3287 20.7397 94.0131 26.7145 95.9551C32.8043 97.7828 39.009 98.6966 45.3285 98.6966C52.3375 98.6966 57.8528 97.383 61.8743 94.7556C65.8959 92.014 67.9066 88.1873 67.9066 83.2753C67.9066 73.4513 60.3806 68.5393 45.3285 68.5393H32.5745V50.2051L57.3932 22.2753H6.03232V0H90.4847V17.9916L63.2531 48.8343Z" fill="#F5ECE8"/>
</svg>
