<svg width="96" height="124" viewBox="0 0 96 124" fill="none" xmlns="http://www.w3.org/2000/svg">
<path d="M96 101.011V124H5.47594V105.713L51.6791 61.3034C56.5847 56.5431 59.8931 52.4794 61.6043 49.1124C63.3155 45.6292 64.1711 42.2041 64.1711 38.8371C64.1711 33.9607 62.5169 30.2453 59.2086 27.691C56.0143 25.0206 51.2799 23.6854 45.0053 23.6854C39.7576 23.6854 35.0232 24.7303 30.8021 26.8202C26.5811 28.794 23.0446 31.8127 20.1925 35.8764L0 22.6404C4.67736 15.5581 11.123 10.0431 19.3369 6.0955C27.5508 2.03183 36.9626 0 47.5722 0C56.4706 0 64.2282 1.50936 70.8449 4.52808C77.5758 7.43071 82.7665 11.6105 86.4171 17.0674C90.1818 22.4082 92.0642 28.736 92.0642 36.0506C92.0642 42.6685 90.6952 48.8801 87.9572 54.6854C85.2193 60.4906 79.9144 67.1086 72.0428 74.5393L44.492 101.011H96Z" fill="#F5ECE8"/>
</svg>
