<svg width="14" height="14" viewBox="0 0 14 14" fill="none" xmlns="http://www.w3.org/2000/svg">
<g clip-path="url(#clip0)">
<path d="M13.525 4.27807C13.494 3.57603 13.3805 3.09339 13.2179 2.67518C13.0501 2.23126 12.792 1.83381 12.4538 1.50341C12.1234 1.16788 11.7234 0.907147 11.2846 0.741999C10.8639 0.579372 10.3838 0.465845 9.68179 0.434892C8.97452 0.401318 8.74999 0.393555 6.95614 0.393555C5.1623 0.393555 4.93777 0.401318 4.23311 0.432271C3.53108 0.463223 3.04844 0.576851 2.63033 0.739378C2.1863 0.907147 1.78886 1.16525 1.45846 1.50341C1.12292 1.83381 0.862296 2.23388 0.697047 2.67266C0.534419 3.09339 0.420892 3.57341 0.38994 4.27544C0.356366 4.98272 0.348602 5.20725 0.348602 7.00109C0.348602 8.79494 0.356366 9.01947 0.387318 9.72412C0.418271 10.4262 0.531899 10.9088 0.694526 11.327C0.862296 11.7709 1.12292 12.1684 1.45846 12.4988C1.78886 12.8343 2.18893 13.095 2.62771 13.2602C3.04844 13.4228 3.52846 13.5363 4.23059 13.5673C4.93514 13.5983 5.15978 13.606 6.95362 13.606C8.74747 13.606 8.972 13.5983 9.67665 13.5673C10.3787 13.5363 10.8613 13.4228 11.2794 13.2602C12.1674 12.9169 12.8694 12.2149 13.2127 11.327C13.3752 10.9063 13.4889 10.4262 13.5198 9.72412C13.5508 9.01947 13.5585 8.79494 13.5585 7.00109C13.5585 5.20725 13.5559 4.98272 13.525 4.27807ZM12.3352 9.6725C12.3067 10.3178 12.1983 10.6662 12.108 10.8985C11.886 11.4741 11.4292 11.9309 10.8536 12.153C10.6213 12.2433 10.2703 12.3517 9.62755 12.38C8.93066 12.4111 8.72165 12.4187 6.95876 12.4187C5.19587 12.4187 4.98424 12.4111 4.28988 12.38C3.64461 12.3517 3.29616 12.2433 3.06387 12.153C2.77743 12.0471 2.5167 11.8793 2.30507 11.6599C2.08568 11.4457 1.91791 11.1876 1.81205 10.9011C1.72171 10.6688 1.61333 10.3178 1.585 9.67512C1.55394 8.97823 1.54628 8.76913 1.54628 7.00624C1.54628 5.24335 1.55394 5.03172 1.585 4.33745C1.61333 3.69218 1.72171 3.34374 1.81205 3.11144C1.91791 2.8249 2.08568 2.56428 2.3077 2.35255C2.52184 2.13316 2.77995 1.96539 3.06649 1.85962C3.29879 1.76929 3.64985 1.6609 4.2925 1.63247C4.98939 1.60152 5.19849 1.59375 6.96128 1.59375C8.7268 1.59375 8.9358 1.60152 9.63017 1.63247C10.2754 1.6609 10.6239 1.76929 10.8562 1.85962C11.1426 1.96539 11.4033 2.13316 11.615 2.35255C11.8344 2.5668 12.0021 2.8249 12.108 3.11144C12.1983 3.34374 12.3067 3.6947 12.3352 4.33745C12.3661 5.03434 12.3739 5.24335 12.3739 7.00624C12.3739 8.76913 12.3661 8.97561 12.3352 9.6725Z" fill="white"/>
<path d="M6.95575 3.60693C5.08196 3.60693 3.56165 5.12714 3.56165 7.00104C3.56165 8.87494 5.08196 10.3951 6.95575 10.3951C8.82965 10.3951 10.3499 8.87494 10.3499 7.00104C10.3499 5.12714 8.82965 3.60693 6.95575 3.60693ZM6.95575 9.20271C5.74013 9.20271 4.75408 8.21676 4.75408 7.00104C4.75408 5.78532 5.74013 4.79937 6.95575 4.79937C8.17148 4.79937 9.15743 5.78532 9.15743 7.00104C9.15743 8.21676 8.17148 9.20271 6.95575 9.20271Z" fill="white"/>
<path d="M11.2765 3.47303C11.2765 3.9106 10.9217 4.2654 10.484 4.2654C10.0465 4.2654 9.69168 3.9106 9.69168 3.47303C9.69168 3.03536 10.0465 2.68066 10.484 2.68066C10.9217 2.68066 11.2765 3.03536 11.2765 3.47303Z" fill="white"/>
</g>
<defs>
<clipPath id="clip0">
<rect width="13.2125" height="13.2125" fill="white" transform="translate(0.325012 0.393555)"/>
</clipPath>
</defs>
</svg>
