<svg width="12" height="12" viewBox="0 0 12 12" fill="none" xmlns="http://www.w3.org/2000/svg">
<g clip-path="url(#clip0)">
<path d="M11.7284 11.6626V11.6622H11.7312V7.50872C11.7312 5.47683 11.2938 3.91162 8.91838 3.91162C7.77644 3.91162 7.01012 4.53827 6.69727 5.13236H6.66423V4.10131H4.41197V11.6622H6.75719V7.91831C6.75719 6.93257 6.94406 5.97938 8.1648 5.97938C9.36761 5.97938 9.38554 7.10433 9.38554 7.98154V11.6626H11.7284Z" fill="white"/>
<path d="M0.593094 4.10156H2.94114V11.6624H0.593094V4.10156Z" fill="white"/>
<path d="M1.76618 0.337402C1.01543 0.337402 0.406235 0.946593 0.406235 1.69735C0.406235 2.4481 1.01543 3.07003 1.76618 3.07003C2.51693 3.07003 3.12612 2.4481 3.12612 1.69735C3.12565 0.946593 2.51646 0.337402 1.76618 0.337402V0.337402Z" fill="white"/>
</g>
<defs>
<clipPath id="clip0">
<rect width="11.325" height="11.325" fill="white" transform="translate(0.406235 0.337402)"/>
</clipPath>
</defs>
</svg>
