<svg width="132" height="162" viewBox="0 0 132 162" fill="none" xmlns="http://www.w3.org/2000/svg">
<path fill-rule="evenodd" clip-rule="evenodd" d="M84.4104 75.2551C84.4104 55.4605 68.3694 39.4195 48.5748 39.4195V0.283203C89.9837 0.283203 123.547 33.8461 123.547 75.2551V128.254H84.4104V75.2551Z" fill="white"/>
<path d="M48.9992 0H9.10852V39.8907H48.9992V0Z" fill="white"/>
<path d="M49.3764 39.4661L9.8158 77.3764V126.415H49.235C49.2821 126.415 46.9717 37.0614 49.3764 39.4661Z" fill="white"/>
<path d="M53.0616 148.736C54.7125 148.736 56.0202 149.218 56.9846 150.182C57.9654 151.13 58.4558 152.528 58.4558 154.375V161.853H56.102V154.645C56.102 153.386 55.7996 152.438 55.1947 151.8C54.5899 151.163 53.7236 150.844 52.5957 150.844C51.3207 150.844 50.3154 151.22 49.5799 151.972C48.8443 152.708 48.4765 153.77 48.4765 155.16V161.853H46.1227V143.66H48.4765V150.697C48.9669 150.076 49.6044 149.594 50.389 149.251C51.19 148.907 52.0808 148.736 53.0616 148.736Z" fill="white"/>
<path d="M68.4496 162C67.1583 162 65.9977 161.714 64.9679 161.142C63.9381 160.57 63.129 159.786 62.5405 158.788C61.9684 157.775 61.6824 156.631 61.6824 155.356C61.6824 154.081 61.9684 152.945 62.5405 151.948C63.129 150.934 63.9381 150.15 64.9679 149.594C65.9977 149.022 67.1583 148.736 68.4496 148.736C69.741 148.736 70.8934 149.022 71.9068 149.594C72.9366 150.15 73.7376 150.934 74.3097 151.948C74.8981 152.945 75.1924 154.081 75.1924 155.356C75.1924 156.631 74.8981 157.775 74.3097 158.788C73.7376 159.786 72.9366 160.57 71.9068 161.142C70.8934 161.714 69.741 162 68.4496 162ZM68.4496 159.941C69.2833 159.941 70.027 159.753 70.6809 159.377C71.3511 158.985 71.8741 158.445 72.2501 157.759C72.626 157.056 72.814 156.255 72.814 155.356C72.814 154.457 72.626 153.664 72.2501 152.977C71.8741 152.275 71.3511 151.735 70.6809 151.359C70.027 150.983 69.2833 150.795 68.4496 150.795C67.616 150.795 66.8641 150.983 66.1939 151.359C65.54 151.735 65.0169 152.275 64.6246 152.977C64.2487 153.664 64.0607 154.457 64.0607 155.356C64.0607 156.255 64.2487 157.056 64.6246 157.759C65.0169 158.445 65.54 158.985 66.1939 159.377C66.8641 159.753 67.616 159.941 68.4496 159.941Z" fill="white"/>
<path d="M90.5601 148.858V161.853H88.3289V159.892C87.8548 160.562 87.2255 161.085 86.4409 161.461C85.6726 161.821 84.8308 162 83.9154 162C82.1827 162 80.8178 161.526 79.8207 160.578C78.8236 159.614 78.3251 158.2 78.3251 156.337V148.858H80.6789V156.067C80.6789 157.325 80.9813 158.282 81.5861 158.936C82.1909 159.573 83.0573 159.892 84.1851 159.892C85.4274 159.892 86.4082 159.516 87.1274 158.764C87.8467 158.012 88.2063 156.95 88.2063 155.576V148.858H90.5601Z" fill="white"/>
<path d="M98.7681 162C97.7056 162 96.6839 161.862 95.7032 161.584C94.7224 161.289 93.9542 160.922 93.3984 160.48L94.3792 158.617C94.9513 159.025 95.646 159.352 96.4633 159.598C97.2806 159.843 98.1061 159.965 98.9397 159.965C100.999 159.965 102.029 159.377 102.029 158.2C102.029 157.808 101.89 157.497 101.612 157.268C101.334 157.039 100.983 156.876 100.558 156.778C100.149 156.663 99.5609 156.541 98.7926 156.41C97.7464 156.247 96.8883 156.059 96.2181 155.846C95.5642 155.634 95.0003 155.274 94.5263 154.767C94.0522 154.261 93.8152 153.55 93.8152 152.634C93.8152 151.457 94.3056 150.517 95.2864 149.814C96.2671 149.095 97.583 148.736 99.2339 148.736C100.1 148.736 100.967 148.842 101.833 149.054C102.699 149.267 103.41 149.553 103.966 149.913L102.961 151.776C101.898 151.089 100.648 150.746 99.2094 150.746C98.2123 150.746 97.4522 150.91 96.9291 151.237C96.4061 151.563 96.1445 151.997 96.1445 152.536C96.1445 152.961 96.2916 153.296 96.5859 153.541C96.8801 153.787 97.2397 153.966 97.6647 154.081C98.1061 154.195 98.719 154.326 99.5036 154.473C100.55 154.653 101.392 154.849 102.029 155.062C102.683 155.258 103.239 155.601 103.696 156.091C104.154 156.582 104.383 157.268 104.383 158.151C104.383 159.328 103.876 160.268 102.863 160.971C101.866 161.657 100.501 162 98.7681 162Z" fill="white"/>
<path d="M119.069 155.429C119.069 155.609 119.053 155.846 119.02 156.14H108.477C108.624 157.285 109.123 158.208 109.973 158.911C110.839 159.598 111.91 159.941 113.185 159.941C114.738 159.941 115.988 159.418 116.936 158.372L118.236 159.892C117.647 160.578 116.912 161.101 116.029 161.461C115.163 161.821 114.19 162 113.111 162C111.738 162 110.52 161.723 109.458 161.167C108.395 160.595 107.57 159.802 106.981 158.788C106.409 157.775 106.123 156.631 106.123 155.356C106.123 154.097 106.401 152.961 106.957 151.948C107.529 150.934 108.305 150.15 109.286 149.594C110.283 149.022 111.403 148.736 112.645 148.736C113.888 148.736 114.991 149.022 115.955 149.594C116.936 150.15 117.696 150.934 118.236 151.948C118.791 152.961 119.069 154.122 119.069 155.429ZM112.645 150.722C111.517 150.722 110.569 151.065 109.801 151.751C109.049 152.438 108.608 153.337 108.477 154.449H116.814C116.683 153.353 116.233 152.463 115.465 151.776C114.713 151.073 113.773 150.722 112.645 150.722Z" fill="white"/>
<path d="M126.065 162C125.002 162 123.981 161.862 123 161.584C122.019 161.289 121.251 160.922 120.695 160.48L121.676 158.617C122.248 159.025 122.943 159.352 123.76 159.598C124.577 159.843 125.403 159.965 126.236 159.965C128.296 159.965 129.326 159.377 129.326 158.2C129.326 157.808 129.187 157.497 128.909 157.268C128.631 157.039 128.28 156.876 127.855 156.778C127.446 156.663 126.858 156.541 126.089 156.41C125.043 156.247 124.185 156.059 123.515 155.846C122.861 155.634 122.297 155.274 121.823 154.767C121.349 154.261 121.112 153.55 121.112 152.634C121.112 151.457 121.602 150.517 122.583 149.814C123.564 149.095 124.88 148.736 126.531 148.736C127.397 148.736 128.263 148.842 129.13 149.054C129.996 149.267 130.707 149.553 131.263 149.913L130.257 151.776C129.195 151.089 127.945 150.746 126.506 150.746C125.509 150.746 124.749 150.91 124.226 151.237C123.703 151.563 123.441 151.997 123.441 152.536C123.441 152.961 123.588 153.296 123.883 153.541C124.177 153.787 124.536 153.966 124.961 154.081C125.403 154.195 126.016 154.326 126.8 154.473C127.846 154.653 128.688 154.849 129.326 155.062C129.98 155.258 130.535 155.601 130.993 156.091C131.451 156.582 131.68 157.268 131.68 158.151C131.68 159.328 131.173 160.268 130.159 160.971C129.162 161.657 127.797 162 126.065 162Z" fill="white"/>
<path d="M5.67553 149.369C7.22413 149.369 8.43746 149.816 9.31553 150.71C10.1936 151.588 10.6326 152.857 10.6326 154.517V161.821H10.1537V154.517C10.1537 153.001 9.76255 151.843 8.98027 151.045C8.21395 150.231 7.12036 149.824 5.69948 149.824C4.08702 149.824 2.80983 150.311 1.8679 151.284C0.941931 152.242 0.478948 153.512 0.478948 155.092V161.821H0V149.44H0.478948V152.745C0.862106 151.692 1.5007 150.869 2.39474 150.279C3.28877 149.672 4.38237 149.369 5.67553 149.369Z" fill="white"/>
<path d="M20.5461 161.893C19.4126 161.893 18.3829 161.63 17.4569 161.103C16.5469 160.56 15.8285 159.81 15.3016 158.852C14.7908 157.894 14.5353 156.816 14.5353 155.619C14.5353 154.422 14.7908 153.352 15.3016 152.41C15.8285 151.452 16.5469 150.71 17.4569 150.183C18.3829 149.64 19.4126 149.369 20.5461 149.369C21.6796 149.369 22.7014 149.64 23.6114 150.183C24.5373 150.71 25.2558 151.452 25.7666 152.41C26.2935 153.352 26.5569 154.422 26.5569 155.619C26.5569 156.816 26.2935 157.894 25.7666 158.852C25.2558 159.81 24.5373 160.56 23.6114 161.103C22.7014 161.63 21.6796 161.893 20.5461 161.893ZM20.5461 161.438C21.5838 161.438 22.5258 161.191 23.3719 160.696C24.218 160.201 24.8806 159.514 25.3595 158.636C25.8385 157.742 26.078 156.736 26.078 155.619C26.078 154.501 25.8385 153.504 25.3595 152.625C24.8806 151.731 24.218 151.045 23.3719 150.566C22.5258 150.071 21.5838 149.824 20.5461 149.824C19.5084 149.824 18.5665 150.071 17.7203 150.566C16.8742 151.045 16.2116 151.731 15.7327 152.625C15.2537 153.504 15.0143 154.501 15.0143 155.619C15.0143 156.736 15.2537 157.742 15.7327 158.636C16.2116 159.514 16.8742 160.201 17.7203 160.696C18.5665 161.191 19.5084 161.438 20.5461 161.438Z" fill="white"/>
<path d="M31.0914 152.649C31.4426 151.596 32.0333 150.79 32.8635 150.231C33.6937 149.656 34.7234 149.369 35.9527 149.369V149.848H35.809C34.3243 149.848 33.1668 150.327 32.3366 151.284C31.5065 152.226 31.0914 153.52 31.0914 155.164V161.821H30.6124V149.44H31.0914V152.649Z" fill="white"/>
<path d="M39.9737 155.378C39.4968 155.378 39.0955 155.215 38.7699 154.89C38.4442 154.564 38.2814 154.157 38.2814 153.668C38.2814 153.168 38.4442 152.767 38.7699 152.465C39.0955 152.151 39.4968 151.994 39.9737 151.994C40.4505 151.994 40.8518 152.151 41.1775 152.465C41.5031 152.767 41.666 153.168 41.666 153.668C41.666 154.157 41.5031 154.564 41.1775 154.89C40.8518 155.215 40.4505 155.378 39.9737 155.378ZM39.9737 161.641C39.4968 161.641 39.0955 161.479 38.7699 161.153C38.4442 160.827 38.2814 160.42 38.2814 159.932C38.2814 159.432 38.4442 159.03 38.7699 158.728C39.0955 158.414 39.4968 158.257 39.9737 158.257C40.4505 158.257 40.8518 158.414 41.1775 158.728C41.5031 159.03 41.666 159.432 41.666 159.932C41.666 160.42 41.5031 160.827 41.1775 161.153C40.8518 161.479 40.4505 161.641 39.9737 161.641Z" fill="white"/>
</svg>
