<svg width="25" height="25" viewBox="0 0 25 25" fill="none" xmlns="http://www.w3.org/2000/svg">
<g filter="url(#filter0_b)">
<path fill-rule="evenodd" clip-rule="evenodd" d="M0 0H25V25H0V0Z" fill="#263A32" fill-opacity="0.3"/>
</g>
<path d="M9.01349 15.5683C9.12604 15.4549 9.27491 15.3932 9.42873 15.3961C9.58255 15.3991 9.72932 15.4664 9.8381 15.584C9.94689 15.7016 10.0092 15.8603 10.0119 16.0265C10.0146 16.1928 9.95753 16.3537 9.85265 16.4754L7.40245 19.123H9.1354C9.27888 19.123 9.41751 19.1792 9.52564 19.2811C9.63377 19.3831 9.7041 19.5239 9.72361 19.6775L9.72915 19.7648C9.72915 19.935 9.6666 20.0983 9.55525 20.2186C9.4439 20.339 9.29287 20.4066 9.1354 20.4066H5.96875C5.81128 20.4066 5.66025 20.339 5.5489 20.2186C5.43756 20.0983 5.375 19.935 5.375 19.7648V16.3419C5.375 16.1717 5.43756 16.0084 5.5489 15.8881C5.66025 15.7677 5.81128 15.7001 5.96875 15.7001C6.12622 15.7001 6.27724 15.7677 6.38859 15.8881C6.49994 16.0084 6.5625 16.1717 6.5625 16.3419V18.2159L9.01349 15.5683ZM15.8685 20.4066C15.711 20.4066 15.56 20.339 15.4487 20.2186C15.3373 20.0983 15.2748 19.935 15.2748 19.7648C15.2748 19.5946 15.3373 19.4314 15.4487 19.311C15.56 19.1906 15.711 19.123 15.8685 19.123H17.5991L15.152 16.4754C15.0515 16.3667 14.9904 16.2226 14.9797 16.0694C14.9691 15.9161 15.0098 15.7638 15.0943 15.6402L15.152 15.5683C15.2634 15.4481 15.4143 15.3806 15.5716 15.3806C15.729 15.3806 15.8799 15.4481 15.9912 15.5683L18.4414 18.2177V16.3419C18.4414 16.1868 18.4934 16.037 18.5877 15.9201C18.682 15.8032 18.8123 15.7272 18.9544 15.7061L19.0352 15.7001C19.1926 15.7001 19.3437 15.7677 19.455 15.8881C19.5664 16.0084 19.6289 16.1717 19.6289 16.3419V19.7648C19.6289 19.935 19.5664 20.0983 19.455 20.2186C19.3437 20.339 19.1926 20.4066 19.0352 20.4066H15.8685ZM9.1354 5C9.29287 5 9.4439 5.06762 9.55525 5.18798C9.6666 5.30834 9.72915 5.47158 9.72915 5.6418C9.72915 5.81202 9.6666 5.97526 9.55525 6.09562C9.4439 6.21598 9.29287 6.2836 9.1354 6.2836H7.40403L9.85265 8.93209C9.95309 9.04087 10.0141 9.18499 10.0245 9.33826C10.035 9.49152 9.99423 9.64376 9.90965 9.76729L9.85186 9.84003C9.74053 9.96021 9.58962 10.0277 9.43228 10.0277C9.27493 10.0277 9.12402 9.96021 9.0127 9.84003L6.5625 7.18811V9.06473C6.56249 9.21982 6.51053 9.36967 6.41622 9.48655C6.32192 9.60343 6.19164 9.67945 6.0495 9.70054L5.96875 9.70653C5.81128 9.70653 5.66025 9.63891 5.5489 9.51855C5.43756 9.39819 5.375 9.23495 5.375 9.06473V5.6418C5.375 5.47158 5.43756 5.30834 5.5489 5.18798C5.66025 5.06762 5.81128 5 5.96875 5H9.1354ZM19.0352 5C19.1926 5 19.3437 5.06762 19.455 5.18798C19.5664 5.30834 19.6289 5.47158 19.6289 5.6418V9.06473C19.6289 9.23495 19.5664 9.39819 19.455 9.51855C19.3437 9.63891 19.1926 9.70653 19.0352 9.70653C18.8777 9.70653 18.7267 9.63891 18.6153 9.51855C18.504 9.39819 18.4414 9.23495 18.4414 9.06473V7.18982L15.9912 9.83917C15.8907 9.94786 15.7574 10.0139 15.6156 10.0254C15.4738 10.0369 15.3329 9.99296 15.2185 9.90164L15.152 9.83917C15.0409 9.71883 14.9784 9.55571 14.9784 9.38563C14.9784 9.21555 15.0409 9.05243 15.152 8.93209L17.5999 6.2836H15.8685C15.725 6.28359 15.5864 6.22743 15.4783 6.12549C15.3701 6.02355 15.2998 5.88273 15.2803 5.72908L15.2748 5.6418C15.2748 5.47158 15.3373 5.30834 15.4487 5.18798C15.56 5.06762 15.711 5 15.8685 5H19.0352Z" fill="white"/>
<defs>
<filter id="filter0_b" x="-8" y="-8" width="41" height="41" filterUnits="userSpaceOnUse" color-interpolation-filters="sRGB">
<feFlood flood-opacity="0" result="BackgroundImageFix"/>
<feGaussianBlur in="BackgroundImage" stdDeviation="4"/>
<feComposite in2="SourceAlpha" operator="in" result="effect1_backgroundBlur"/>
<feBlend mode="normal" in="SourceGraphic" in2="effect1_backgroundBlur" result="shape"/>
</filter>
</defs>
</svg>
