<svg width="70" height="41" viewBox="0 0 70 41" fill="none" xmlns="http://www.w3.org/2000/svg">
<path d="M15.9403 20.6167C15.745 20.4215 15.745 20.1049 15.9403 19.9096L19.1223 16.7276C19.3176 16.5324 19.6341 16.5324 19.8294 16.7276C20.0247 16.9229 20.0247 17.2395 19.8294 17.4348L17.001 20.2632L19.8294 23.0916C20.0247 23.2869 20.0247 23.6035 19.8294 23.7987C19.6341 23.994 19.3176 23.994 19.1223 23.7987L15.9403 20.6167ZM70 20.7632H16.2939V19.7632H70V20.7632Z" fill="white"/>
<path d="M38.5784 12.8378C36.8543 8.58523 33.7042 5.06512 29.6683 2.88136C25.6324 0.697599 20.9624 -0.0136902 16.4594 0.86951C11.9564 1.75271 7.90109 4.17535 4.98913 7.72183C2.07716 11.2683 0.490066 15.7176 0.500097 20.3064C0.510127 24.8951 2.11666 29.3374 5.0441 32.8711C7.97154 36.4049 12.0374 38.8097 16.5442 39.6733C21.0511 40.5368 25.7179 39.8051 29.7442 37.6037C33.7705 35.4023 36.9052 31.8684 38.6107 27.6084" stroke="white" stroke-opacity="0.5"/>
</svg>
