<svg width="35" height="36" viewBox="0 0 35 36" fill="none" xmlns="http://www.w3.org/2000/svg">
<path d="M11.1653 11.0481C9.07863 12.8212 8.31397 16.0547 10.1157 18.6488C11.8018 21.0763 13.9256 23.1997 16.3526 24.885C18.9468 26.6864 22.1802 25.9215 23.9531 23.8348L23.9728 23.8439C26.2372 24.8929 28.6424 25.6119 31.1111 25.9783V31.1111L31.109 31.1111L31.1035 31.1111C15.5974 31.1331 3.87231 19.2716 3.88891 3.89587V3.88889H9.02099L9.02133 3.89116C9.38777 6.3596 10.1065 8.76271 11.1555 11.0271L11.1653 11.0481ZM31.109 35H33.0556C34.1294 35 35 34.1294 35 33.0555V24.3011C35 23.3375 34.2942 22.5192 33.341 22.3777L31.6801 22.1313C29.5794 21.8195 27.5344 21.2079 25.6074 20.3153L24.1435 19.6371C23.2952 19.2442 22.2873 19.5105 21.7439 20.2713L21.0812 21.1992C20.5004 22.0123 19.3915 22.2607 18.5707 21.6907C16.5246 20.2699 14.7313 18.4769 13.3098 16.4304C12.7396 15.6095 12.988 14.5004 13.8013 13.9196L14.7287 13.2574C15.4896 12.714 15.756 11.706 15.363 10.8576L14.6841 9.39231C13.7914 7.4655 13.1799 5.42062 12.8681 3.32012L12.6215 1.65892C12.48 0.705755 11.6617 0 10.6981 0H1.94446C0.870577 0 1.98843e-05 0.870557 1.98843e-05 1.94444V3.89167C-0.0188793 21.4042 13.4366 35.025 31.109 35Z" fill="#ECE1D8"/>
</svg>
