<svg width="66" height="85" viewBox="0 0 66 85" fill="none" xmlns="http://www.w3.org/2000/svg">
<path d="M66 69.2416V85H3.76471V72.4649L35.5294 42.0225C38.902 38.7594 41.1765 35.9738 42.3529 33.6657C43.5294 31.2781 44.1176 28.9302 44.1176 26.6222C44.1176 23.2795 42.9804 20.7327 40.7059 18.9817C38.5098 17.1512 35.2549 16.236 30.9412 16.236C27.3333 16.236 24.0784 16.9522 21.1765 18.3848C18.2745 19.7378 15.8431 21.8071 13.8824 24.5927L0 15.5197C3.21569 10.6648 7.64706 6.88436 13.2941 4.17837C18.9412 1.39279 25.4118 0 32.7059 0C38.8235 0 44.1569 1.03464 48.7059 3.10393C53.3333 5.09363 56.902 7.9588 59.4118 11.6994C62 15.3605 63.2941 19.698 63.2941 24.7121C63.2941 29.2486 62.3529 33.5066 60.4706 37.486C58.5882 41.4654 54.9412 46.0019 49.5294 51.0955L30.5882 69.2416H66Z" fill="#F5ECE8"/>
</svg>
