<svg width="66" height="84" viewBox="0 0 66 84" fill="none" xmlns="http://www.w3.org/2000/svg">
<path d="M43.4865 33.6236C50.754 34.8034 56.3232 37.5169 60.1939 41.764C64.0646 45.9326 66 51.1236 66 57.3371C66 62.1348 64.7361 66.5787 62.2083 70.6685C59.6804 74.6798 55.8097 77.9045 50.5961 80.3427C45.4614 82.7809 39.1418 84 31.6373 84C25.7917 84 20.0251 83.2528 14.3375 81.7584C8.7289 80.1854 3.94973 77.9831 0 75.1517L7.46499 60.5225C10.6248 62.882 14.2585 64.7303 18.3662 66.0674C22.553 67.3259 26.8187 67.9551 31.1634 67.9551C35.982 67.9551 39.7738 67.0506 42.5386 65.2416C45.3034 63.3539 46.6858 60.7191 46.6858 57.3371C46.6858 50.573 41.5117 47.191 31.1634 47.191H22.395V34.5674L39.4578 15.3371H4.14722V0H62.2083V12.3876L43.4865 33.6236Z" fill="#F5ECE8"/>
</svg>
