<svg width="64" height="83" viewBox="0 0 64 83" fill="none" xmlns="http://www.w3.org/2000/svg">
<path d="M30.853 30.6587C42.1697 30.6587 50.5042 32.9513 55.8566 37.5365C61.2855 42.1217 64 48.2612 64 55.9551C64 60.9288 62.7766 65.4752 60.3298 69.5941C57.8829 73.6353 54.1362 76.8994 49.0896 79.3862C44.1195 81.7954 37.9642 83 30.6237 83C24.9654 83 19.3835 82.2617 13.8781 80.7851C8.44922 79.2308 3.82318 77.0548 0 74.257L7.3405 59.802C10.399 62.1334 13.9164 63.9597 17.8925 65.2809C21.8686 66.5244 25.9594 67.1461 30.1649 67.1461C34.8292 67.1461 38.4994 66.2135 41.1756 64.3483C43.8519 62.4832 45.19 59.8797 45.19 56.5379C45.19 53.0407 43.7754 50.3984 40.9462 48.611C38.1936 46.8235 33.3763 45.9298 26.4946 45.9298H5.96416L10.0932 0H59.0681V15.1545H25.5771L24.3154 30.6587H30.853Z" fill="#F5ECE8"/>
</svg>
