<svg width="8" height="12" viewBox="0 0 8 12" fill="none" xmlns="http://www.w3.org/2000/svg">
<mask id="path-1-inside-1" fill="white">
<path fill-rule="evenodd" clip-rule="evenodd" d="M7.96051 0.00012207L-3.33786e-06 5.7741L7.96051 11.5481L7.96051 0.00012207Z"/>
</mask>
<path d="M-3.33786e-06 5.7741L-0.587144 4.96461L-1.70317 5.7741L-0.587144 6.58358L-3.33786e-06 5.7741ZM7.96051 0.00012207L8.96051 0.00012207V-1.96056L7.37337 -0.809363L7.96051 0.00012207ZM7.96051 11.5481L7.37337 12.3576L8.96051 13.5087V11.5481H7.96051ZM0.587138 6.58358L8.54765 0.809607L7.37337 -0.809363L-0.587144 4.96461L0.587138 6.58358ZM8.54765 10.7386L0.587138 4.96461L-0.587144 6.58358L7.37337 12.3576L8.54765 10.7386ZM8.96051 11.5481V0.00012207L6.96051 0.00012207L6.96051 11.5481H8.96051Z" fill="#263A32" mask="url(#path-1-inside-1)"/>
</svg>
