<svg width="8" height="12" viewBox="0 0 8 12" fill="none" xmlns="http://www.w3.org/2000/svg">
<mask id="path-1-inside-1" fill="white">
<path fill-rule="evenodd" clip-rule="evenodd" d="M0 11.548L7.96051 5.774L0 2.67029e-05L0 11.548Z"/>
</mask>
<path d="M7.96051 5.774L8.54765 6.58348L9.66368 5.774L8.54765 4.96452L7.96051 5.774ZM0 11.548H-1L-1 13.5087L0.587141 12.3575L0 11.548ZM0 2.67029e-05L0.587141 -0.809458L-1 -1.96065L-1 2.67029e-05H0ZM7.37337 4.96452L-0.587141 10.7385L0.587141 12.3575L8.54765 6.58348L7.37337 4.96452ZM-0.587141 0.809511L7.37337 6.58348L8.54765 4.96452L0.587141 -0.809458L-0.587141 0.809511ZM-1 2.67029e-05L-1 11.548H1L1 2.67029e-05H-1Z" fill="#263A32" mask="url(#path-1-inside-1)"/>
</svg>
