<svg width="12" height="8" viewBox="0 0 12 8" fill="none" xmlns="http://www.w3.org/2000/svg">
<mask id="path-1-inside-1" fill="white">
<path fill-rule="evenodd" clip-rule="evenodd" d="M11.4614 7.90089L5.73069 -3.36202e-06L-3.8147e-05 7.90089L11.4614 7.90089Z"/>
</mask>
<path d="M5.73069 -3.36202e-06L6.54018 -0.587144L5.73069 -1.70317L4.92121 -0.587144L5.73069 -3.36202e-06ZM11.4614 7.90089L11.4614 8.90089L13.4221 8.90089L12.2709 7.31375L11.4614 7.90089ZM-3.8147e-05 7.90089L-0.809523 7.31375L-1.96072 8.90089L-3.82344e-05 8.90089L-3.8147e-05 7.90089ZM4.92121 0.587138L10.6519 8.48804L12.2709 7.31375L6.54018 -0.587144L4.92121 0.587138ZM0.809446 8.48803L6.54018 0.587138L4.92121 -0.587144L-0.809523 7.31375L0.809446 8.48803ZM-3.82344e-05 8.90089L11.4614 8.90089L11.4614 6.90089L-3.80595e-05 6.90089L-3.82344e-05 8.90089Z" fill="#CBA689" mask="url(#path-1-inside-1)"/>
</svg>
