<svg width="102" height="60" viewBox="0 0 102 60" fill="none" xmlns="http://www.w3.org/2000/svg">
<path d="M79.3182 31.3238C79.904 30.7381 79.904 29.7883 79.3182 29.2025L69.7722 19.6566C69.1864 19.0708 68.2367 19.0708 67.6509 19.6566C67.0651 20.2424 67.0651 21.1921 67.6509 21.7779L76.1362 30.2632L67.6509 38.7485C67.0651 39.3343 67.0651 40.284 67.6509 40.8698C68.2367 41.4556 69.1864 41.4556 69.7722 40.8698L79.3182 31.3238ZM0 31.7632L78.2575 31.7632V28.7632L0 28.7632L0 31.7632Z" fill="#1E2D27"/>
<path d="M46.5006 19.7332C48.9456 13.7026 53.4129 8.71065 59.1362 5.61384C64.8595 2.51703 71.482 1.50835 77.8678 2.76082C84.2535 4.0133 90.0044 7.44887 94.1339 12.4782C98.2634 17.5075 100.514 23.817 100.5 30.3244C100.486 36.8318 98.2074 43.1314 94.0559 48.1426C89.9045 53.1538 84.1387 56.5642 77.7475 57.7888C71.3563 59.0133 64.7382 57.9757 59.0285 54.8539C53.3188 51.7321 48.8734 46.7207 46.4548 40.6794" stroke="#1E2D27" stroke-width="3"/>
</svg>
