<svg width="27" height="23" viewBox="0 0 27 23" fill="none" xmlns="http://www.w3.org/2000/svg">
<path d="M25.9618 0.318578C25.7109 0.177232 25.4304 0.0801782 25.1363 0.0329608C24.8421 -0.0142566 24.5402 -0.0107123 24.2476 0.0433912C23.9551 0.0974946 23.6777 0.201097 23.4313 0.34828C23.1849 0.495463 22.9743 0.683343 22.8116 0.901186L10.0483 17.9781L3.82384 12.9824C3.60423 12.8061 3.34678 12.6692 3.06618 12.5793C2.78559 12.4894 2.48734 12.4483 2.18847 12.4585C1.58488 12.479 1.0154 12.7068 0.605307 13.0918C0.195217 13.4768 -0.0218905 13.9874 0.00174622 14.5113C0.025383 15.0353 0.287828 15.5296 0.731345 15.8856L8.9041 22.4445C8.9041 22.4445 9.13871 22.6198 9.24728 22.6811C9.49821 22.8226 9.77879 22.9197 10.073 22.967C10.3672 23.0143 10.6692 23.0107 10.9619 22.9566C11.2545 22.9025 11.532 22.7989 11.7784 22.6516C12.0249 22.5044 12.2355 22.3164 12.3982 22.0985L26.633 3.05302C26.7958 2.83523 26.9076 2.59173 26.962 2.33643C27.0164 2.08113 27.0123 1.81903 26.95 1.5651C26.8877 1.31117 26.7683 1.07038 26.5988 0.856501C26.4292 0.64262 26.2128 0.459831 25.9618 0.318578Z" fill="white"/>
</svg>
