<svg width="28" height="28" viewBox="0 0 28 28" fill="none" xmlns="http://www.w3.org/2000/svg">
<path d="M3.48583 26.8232L0.540466 27.685C0.483709 27.6855 0.427444 27.6744 0.375055 27.6525C0.322668 27.6305 0.27524 27.5982 0.235626 27.5573L0.233049 27.5556C0.230474 27.553 0.230473 27.5478 0.227039 27.5453C0.184299 27.4968 0.152906 27.4393 0.135159 27.377C0.129148 27.3572 0.126572 27.3382 0.123137 27.3175C0.119701 27.2959 0.110256 27.2769 0.110256 27.2545C0.110256 27.22 0.122276 27.1898 0.130005 27.1579C0.13258 27.1458 0.127428 27.1337 0.131721 27.1217L2.84524 18.7403C2.86582 18.6754 2.90177 18.6164 2.95 18.5686L17.6485 3.8004C17.6639 3.77624 17.6751 3.75036 17.6957 3.72879L20.9064 0.503055C21.1575 0.251494 21.4977 0.110229 21.8523 0.110229C22.2069 0.110229 22.547 0.251494 22.7982 0.503055L27.2935 5.01943C27.5459 5.27308 27.6851 5.6104 27.6851 5.9693C27.6851 6.32819 27.5459 6.66638 27.2935 6.92002L24.1541 10.0742C24.1386 10.0974 24.1283 10.1242 24.1077 10.1449L9.43238 24.9881C9.38201 25.0397 9.31934 25.0774 9.25033 25.0977L3.48583 26.8232ZM22.222 8.86202L8.75142 22.2222L9.2469 23.9494L23.1966 9.84122L22.222 8.86202ZM8.0928 21.664L21.6157 8.25294L19.523 6.15047L6.1212 19.6504V21.664H8.0928ZM5.58623 18.968L18.9159 5.54052L18.0237 4.64415L4.10324 18.6298L5.58623 18.968ZM7.9451 22.5268H5.69185C5.57798 22.5268 5.46877 22.4813 5.38825 22.4004C5.30773 22.3195 5.2625 22.2098 5.2625 22.0954V19.779L3.53907 19.3856L1.20082 26.6066L8.48952 24.4248L7.9451 22.5268ZM26.8264 5.9693C26.8264 5.84075 26.7765 5.72083 26.6864 5.62938L22.1911 1.113C22.1011 1.02297 21.9793 0.972416 21.8523 0.972416C21.7253 0.972416 21.6035 1.02297 21.5135 1.113L18.618 4.02212L23.79 9.21833L26.6855 6.30921C26.7304 6.26484 26.7659 6.21191 26.7901 6.15354C26.8143 6.09516 26.8266 6.03252 26.8264 5.9693Z" fill="white"/>
</svg>
