<svg width="12" height="12" viewBox="0 0 12 12" fill="none" xmlns="http://www.w3.org/2000/svg">
<g clip-path="url(#clip0)">
<path d="M11.1828 3.51673C11.1573 2.93898 11.0639 2.54179 10.9301 2.19761C10.792 1.83228 10.5796 1.5052 10.3013 1.23329C10.0294 0.957155 9.70013 0.742584 9.33903 0.606673C8.99287 0.472837 8.59774 0.379408 8.02 0.353935C7.43794 0.326305 7.25315 0.319916 5.77688 0.319916C4.30061 0.319916 4.11583 0.326305 3.53593 0.351778C2.95818 0.377251 2.56098 0.470762 2.21689 0.604516C1.85148 0.742584 1.52439 0.954997 1.25249 1.23329C0.97635 1.5052 0.761863 1.83444 0.625869 2.19554C0.492032 2.54179 0.398604 2.93683 0.373131 3.51457C0.3455 4.09664 0.339111 4.28142 0.339111 5.75769C0.339111 7.23396 0.3455 7.41874 0.370973 7.99864C0.396446 8.57639 0.489958 8.97359 0.623794 9.31776C0.761863 9.6831 0.97635 10.0102 1.25249 10.2821C1.52439 10.5582 1.85363 10.7728 2.21473 10.9087C2.56098 11.0425 2.95602 11.136 3.53385 11.1614C4.11367 11.187 4.29854 11.1933 5.77481 11.1933C7.25108 11.1933 7.43586 11.187 8.01577 11.1614C8.59351 11.136 8.99071 11.0425 9.3348 10.9087C10.0656 10.6262 10.6433 10.0484 10.9258 9.31776C11.0596 8.97151 11.1531 8.57639 11.1786 7.99864C11.204 7.41874 11.2104 7.23396 11.2104 5.75769C11.2104 4.28142 11.2083 4.09664 11.1828 3.51673ZM10.2036 7.95616C10.1802 8.4872 10.091 8.77395 10.0167 8.96512C9.83397 9.43882 9.45802 9.81478 8.98432 9.99748C8.79315 10.0718 8.50432 10.161 7.97536 10.1843C7.40184 10.2099 7.22984 10.2162 5.77904 10.2162C4.32824 10.2162 4.15408 10.2099 3.58264 10.1843C3.05161 10.161 2.76485 10.0718 2.57368 9.99748C2.33795 9.91036 2.12338 9.77229 1.94922 9.59174C1.76867 9.41542 1.6306 9.20301 1.54348 8.96728C1.46913 8.77611 1.37993 8.4872 1.35662 7.95832C1.33106 7.3848 1.32476 7.21272 1.32476 5.76192C1.32476 4.31112 1.33106 4.13696 1.35662 3.5656C1.37993 3.03457 1.46913 2.74781 1.54348 2.55664C1.6306 2.32083 1.76867 2.10634 1.95138 1.9321C2.12761 1.75155 2.34002 1.61348 2.57584 1.52644C2.76701 1.45209 3.05592 1.3629 3.5848 1.3395C4.15831 1.31403 4.3304 1.30764 5.78112 1.30764C7.23407 1.30764 7.40607 1.31403 7.97752 1.3395C8.50855 1.3629 8.79531 1.45209 8.98648 1.52644C9.22221 1.61348 9.43678 1.75155 9.61094 1.9321C9.79149 2.10842 9.92956 2.32083 10.0167 2.55664C10.091 2.74781 10.1802 3.03664 10.2036 3.5656C10.2291 4.13912 10.2355 4.31112 10.2355 5.76192C10.2355 7.21272 10.2291 7.38265 10.2036 7.95616Z" fill="white"/>
<path d="M5.77693 2.96442C4.23487 2.96442 2.9837 4.2155 2.9837 5.75765C2.9837 7.2998 4.23487 8.55088 5.77693 8.55088C7.31909 8.55088 8.57016 7.2998 8.57016 5.75765C8.57016 4.2155 7.31909 2.96442 5.77693 2.96442ZM5.77693 7.56955C4.77652 7.56955 3.96503 6.75814 3.96503 5.75765C3.96503 4.75715 4.77652 3.94575 5.77693 3.94575C6.77743 3.94575 7.58883 4.75715 7.58883 5.75765C7.58883 6.75814 6.77743 7.56955 5.77693 7.56955Z" fill="white"/>
<path d="M9.33277 2.854C9.33277 3.2141 9.04079 3.50609 8.6806 3.50609C8.32049 3.50609 8.0285 3.2141 8.0285 2.854C8.0285 2.49381 8.32049 2.2019 8.6806 2.2019C9.04079 2.2019 9.33277 2.49381 9.33277 2.854Z" fill="white"/>
</g>
<defs>
<clipPath id="clip0">
<rect width="10.8734" height="10.8734" fill="white" transform="translate(0.320068 0.319855)"/>
</clipPath>
</defs>
</svg>
