<svg width="10" height="10" viewBox="0 0 10 10" fill="none" xmlns="http://www.w3.org/2000/svg">
<g clip-path="url(#clip0)">
<path d="M9.90093 9.41657V9.41618H9.90326V5.99804C9.90326 4.32586 9.54327 3.03775 7.58838 3.03775C6.6486 3.03775 6.01794 3.55346 5.76048 4.04238H5.73329V3.19386H3.87976V9.41618H5.8098V6.33512C5.8098 5.52388 5.96358 4.73944 6.9682 4.73944C7.95808 4.73944 7.97283 5.66524 7.97283 6.38715V9.41657H9.90093Z" fill="white"/>
<path d="M0.737 3.19418H2.66936V9.4165H0.737V3.19418Z" fill="white"/>
<path d="M1.70238 0.0964355C1.08453 0.0964355 0.583191 0.597778 0.583191 1.21562C0.583191 1.83346 1.08453 2.34529 1.70238 2.34529C2.32022 2.34529 2.82156 1.83346 2.82156 1.21562C2.82117 0.597778 2.31983 0.0964355 1.70238 0.0964355V0.0964355Z" fill="white"/>
</g>
<defs>
<clipPath id="clip0">
<rect width="9.32008" height="9.32008" fill="white" transform="translate(0.583191 0.0964355)"/>
</clipPath>
</defs>
</svg>
