<svg width="146" height="35" viewBox="0 0 146 35" fill="none" xmlns="http://www.w3.org/2000/svg">
<path fill-rule="evenodd" clip-rule="evenodd" d="M20.3343 20.5048C20.3343 15.091 15.9627 10.7038 10.5681 10.7038V0C21.8531 0 30.9999 9.17946 30.9999 20.5048V35H20.3343V20.5048Z" fill="white"/>
<path d="M10.5682 0H0V10.7143H10.5682V0Z" fill="white"/>
<path d="M11.2727 10.7272L0.704468 20.9989V34.2857H11.2349C11.2475 34.2857 10.6302 10.0756 11.2727 10.7272Z" fill="white"/>
<path d="M45.969 25.0428C47.242 25.0428 48.2488 25.3984 48.9893 26.1096C49.7298 26.8209 50.1 27.844 50.1 29.1791V34.8877H49.1257V29.254C49.1257 28.156 48.8334 27.32 48.2488 26.746C47.6772 26.172 46.8718 25.885 45.8325 25.885C44.6374 25.885 43.6956 26.2282 43.0071 26.9144C42.3186 27.6007 41.9743 28.5241 41.9743 29.6845V34.8877H41V25.1176H41.9353V27.2326C42.2861 26.5463 42.8057 26.0098 43.4942 25.623C44.1957 25.2362 45.0206 25.0428 45.969 25.0428Z" fill="white"/>
<path d="M58.1054 34.9626C57.1441 34.9626 56.2737 34.7504 55.4943 34.3262C54.7278 33.902 54.1238 33.3155 53.6821 32.5668C53.2404 31.8057 53.0196 30.951 53.0196 30.0027C53.0196 29.0544 53.2404 28.2059 53.6821 27.4572C54.1238 26.6961 54.7278 26.1034 55.4943 25.6791C56.2737 25.2549 57.1441 25.0428 58.1054 25.0428C59.0667 25.0428 59.9306 25.2549 60.6971 25.6791C61.4765 26.1034 62.0871 26.6961 62.5288 27.4572C62.9705 28.2059 63.1913 29.0544 63.1913 30.0027C63.1913 30.951 62.9705 31.8057 62.5288 32.5668C62.0871 33.3155 61.4765 33.902 60.6971 34.3262C59.9306 34.7504 59.0667 34.9626 58.1054 34.9626ZM58.1054 34.1203C58.8849 34.1203 59.5799 33.9456 60.1904 33.5963C60.814 33.2469 61.3012 32.7602 61.6519 32.1364C62.0156 31.5125 62.1975 30.8012 62.1975 30.0027C62.1975 29.2041 62.0156 28.4929 61.6519 27.869C61.3012 27.2451 60.814 26.7585 60.1904 26.4091C59.5799 26.0597 58.8849 25.885 58.1054 25.885C57.326 25.885 56.6245 26.0597 56.0009 26.4091C55.3904 26.7585 54.9032 27.2451 54.5395 27.869C54.1887 28.4929 54.0134 29.2041 54.0134 30.0027C54.0134 30.8012 54.1887 31.5125 54.5395 32.1364C54.9032 32.7602 55.3904 33.2469 56.0009 33.5963C56.6245 33.9456 57.326 34.1203 58.1054 34.1203Z" fill="white"/>
<path d="M67.1493 27.2513C67.461 26.5401 67.9482 25.9973 68.6107 25.623C69.2732 25.2362 70.0787 25.0428 71.027 25.0428V25.9599L70.7932 25.9412C69.663 25.9412 68.7796 26.2843 68.1431 26.9706C67.5065 27.6444 67.1882 28.5865 67.1882 29.7968V34.8877H66.2139V25.1176H67.1493V27.2513Z" fill="white"/>
<path d="M74.0387 27.4385C73.6749 27.4385 73.3631 27.32 73.1033 27.0829C72.8435 26.8333 72.7136 26.5214 72.7136 26.1471C72.7136 25.7852 72.8435 25.4857 73.1033 25.2487C73.3631 24.9991 73.6749 24.8743 74.0387 24.8743C74.4024 24.8743 74.7077 24.9929 74.9545 25.2299C75.2013 25.467 75.3247 25.7727 75.3247 26.1471C75.3247 26.5214 75.1948 26.8333 74.935 27.0829C74.6882 27.32 74.3894 27.4385 74.0387 27.4385ZM74.0387 35C73.6749 35 73.3631 34.8815 73.1033 34.6444C72.8435 34.3948 72.7136 34.0829 72.7136 33.7086C72.7136 33.3467 72.8435 33.0472 73.1033 32.8102C73.3631 32.5606 73.6749 32.4358 74.0387 32.4358C74.4024 32.4358 74.7077 32.5544 74.9545 32.7914C75.2013 33.0285 75.3247 33.3342 75.3247 33.7086C75.3247 34.0829 75.1948 34.3948 74.935 34.6444C74.6882 34.8815 74.3894 35 74.0387 35Z" fill="white"/>
<path d="M83.5199 24.8743C84.8319 24.8743 85.8712 25.2424 86.6376 25.9786C87.4171 26.7023 87.8068 27.7692 87.8068 29.1791V34.8877H85.9361V29.385C85.9361 28.4242 85.6958 27.7005 85.2151 27.2139C84.7345 26.7273 84.046 26.484 83.1496 26.484C82.1363 26.484 81.3374 26.7709 80.7528 27.3449C80.1683 27.9064 79.876 28.7175 79.876 29.7781V34.8877H78.0053V21H79.876V26.3717C80.2657 25.8975 80.7723 25.5294 81.3959 25.2674C82.0324 25.0053 82.7404 24.8743 83.5199 24.8743Z" fill="white"/>
<path d="M95.7492 35C94.7229 35 93.8006 34.7816 92.9822 34.3449C92.1638 33.9082 91.5207 33.3093 91.0531 32.5481C90.5984 31.7745 90.371 30.9011 90.371 29.9278C90.371 28.9545 90.5984 28.0873 91.0531 27.3262C91.5207 26.5526 92.1638 25.9537 92.9822 25.5294C93.8006 25.0927 94.7229 24.8743 95.7492 24.8743C96.7755 24.8743 97.6913 25.0927 98.4967 25.5294C99.3152 25.9537 99.9517 26.5526 100.406 27.3262C100.874 28.0873 101.108 28.9545 101.108 29.9278C101.108 30.9011 100.874 31.7745 100.406 32.5481C99.9517 33.3093 99.3152 33.9082 98.4967 34.3449C97.6913 34.7816 96.7755 35 95.7492 35ZM95.7492 33.4278C96.4117 33.4278 97.0028 33.2843 97.5224 32.9973C98.0551 32.6979 98.4708 32.2861 98.7695 31.762C99.0683 31.2255 99.2177 30.6141 99.2177 29.9278C99.2177 29.2415 99.0683 28.6364 98.7695 28.1123C98.4708 27.5758 98.0551 27.164 97.5224 26.877C97.0028 26.59 96.4117 26.4465 95.7492 26.4465C95.0867 26.4465 94.4891 26.59 93.9565 26.877C93.4368 27.164 93.0211 27.5758 92.7094 28.1123C92.4106 28.6364 92.2612 29.2415 92.2612 29.9278C92.2612 30.6141 92.4106 31.2255 92.7094 31.762C93.0211 32.2861 93.4368 32.6979 93.9565 32.9973C94.4891 33.2843 95.0867 33.4278 95.7492 33.4278Z" fill="white"/>
<path d="M113.321 24.9679V34.8877H111.548V33.3904C111.171 33.902 110.671 34.3012 110.047 34.5882C109.437 34.8627 108.768 35 108.04 35C106.663 35 105.579 34.6381 104.786 33.9144C103.994 33.1783 103.598 32.0989 103.598 30.6765V24.9679H105.468V30.4706C105.468 31.4314 105.709 32.1613 106.189 32.6604C106.67 33.1471 107.358 33.3904 108.255 33.3904C109.242 33.3904 110.021 33.1034 110.593 32.5294C111.165 31.9554 111.45 31.1444 111.45 30.0963V24.9679H113.321Z" fill="white"/>
<path d="M119.844 35C119 35 118.188 34.8939 117.408 34.6818C116.629 34.4572 116.018 34.1765 115.577 33.8396L116.356 32.4171C116.811 32.7291 117.363 32.9786 118.013 33.1658C118.662 33.3529 119.318 33.4465 119.981 33.4465C121.617 33.4465 122.436 32.9973 122.436 32.0989C122.436 31.7995 122.325 31.5624 122.105 31.3877C121.884 31.213 121.604 31.0882 121.267 31.0134C120.942 30.926 120.474 30.8324 119.864 30.7326C119.032 30.6078 118.35 30.4643 117.818 30.3021C117.298 30.1399 116.85 29.8654 116.473 29.4786C116.096 29.0918 115.908 28.549 115.908 27.8503C115.908 26.9519 116.298 26.2344 117.077 25.6979C117.857 25.1488 118.902 24.8743 120.214 24.8743C120.903 24.8743 121.591 24.9554 122.28 25.1176C122.968 25.2799 123.534 25.4982 123.975 25.7727L123.176 27.1952C122.332 26.6711 121.338 26.4091 120.195 26.4091C119.403 26.4091 118.798 26.5339 118.383 26.7834C117.967 27.033 117.759 27.3636 117.759 27.7754C117.759 28.0998 117.876 28.3556 118.11 28.5428C118.344 28.7299 118.63 28.8672 118.967 28.9545C119.318 29.0419 119.805 29.1417 120.429 29.254C121.26 29.3913 121.929 29.541 122.436 29.7032C122.955 29.8529 123.397 30.115 123.761 30.4893C124.125 30.8636 124.307 31.3877 124.307 32.0615C124.307 32.9599 123.904 33.6774 123.098 34.2139C122.306 34.738 121.221 35 119.844 35Z" fill="white"/>
<path d="M135.978 29.984C135.978 30.1212 135.965 30.3021 135.939 30.5267H127.56C127.677 31.4002 128.073 32.1052 128.749 32.6417C129.437 33.1658 130.288 33.4278 131.302 33.4278C132.536 33.4278 133.529 33.0285 134.283 32.2299L135.316 33.3904C134.848 33.9144 134.263 34.3137 133.562 34.5882C132.873 34.8627 132.1 35 131.243 35C130.152 35 129.184 34.7879 128.34 34.3636C127.495 33.9269 126.839 33.3217 126.372 32.5481C125.917 31.7745 125.69 30.9011 125.69 29.9278C125.69 28.967 125.91 28.0998 126.352 27.3262C126.807 26.5526 127.424 25.9537 128.203 25.5294C128.996 25.0927 129.886 24.8743 130.873 24.8743C131.86 24.8743 132.737 25.0927 133.503 25.5294C134.283 25.9537 134.887 26.5526 135.316 27.3262C135.757 28.0998 135.978 28.9857 135.978 29.984ZM130.873 26.3904C129.977 26.3904 129.223 26.6524 128.612 27.1765C128.015 27.7005 127.664 28.3868 127.56 29.2353H134.186C134.082 28.3993 133.724 27.7193 133.114 27.1952C132.516 26.6586 131.769 26.3904 130.873 26.3904Z" fill="white"/>
<path d="M141.538 35C140.693 35 139.881 34.8939 139.102 34.6818C138.322 34.4572 137.712 34.1765 137.27 33.8396L138.05 32.4171C138.504 32.7291 139.056 32.9786 139.706 33.1658C140.356 33.3529 141.012 33.4465 141.674 33.4465C143.311 33.4465 144.129 32.9973 144.129 32.0989C144.129 31.7995 144.019 31.5624 143.798 31.3877C143.577 31.213 143.298 31.0882 142.96 31.0134C142.635 30.926 142.168 30.8324 141.557 30.7326C140.726 30.6078 140.044 30.4643 139.511 30.3021C138.992 30.1399 138.543 29.8654 138.167 29.4786C137.79 29.0918 137.602 28.549 137.602 27.8503C137.602 26.9519 137.991 26.2344 138.771 25.6979C139.55 25.1488 140.596 24.8743 141.908 24.8743C142.596 24.8743 143.285 24.9554 143.973 25.1176C144.662 25.2799 145.227 25.4982 145.669 25.7727L144.87 27.1952C144.025 26.6711 143.032 26.4091 141.888 26.4091C141.096 26.4091 140.492 26.5339 140.076 26.7834C139.661 27.033 139.453 27.3636 139.453 27.7754C139.453 28.0998 139.57 28.3556 139.803 28.5428C140.037 28.7299 140.323 28.8672 140.661 28.9545C141.012 29.0419 141.499 29.1417 142.122 29.254C142.954 29.3913 143.623 29.541 144.129 29.7032C144.649 29.8529 145.091 30.115 145.454 30.4893C145.818 30.8636 146 31.3877 146 32.0615C146 32.9599 145.597 33.6774 144.792 34.2139C143.999 34.738 142.915 35 141.538 35Z" fill="white"/>
</svg>
